<svg xmlns="http://www.w3.org/2000/svg" viewBox="0 0 256 256"><defs><linearGradient id="bg" x1="0" y1="0" x2="1" y2="1"><stop stop-color="#123b4f"/><stop offset="1" stop-color="#071924"/></linearGradient><filter id="s"><feDropShadow dx="0" dy="7" stdDeviation="7" flood-opacity=".35"/></filter></defs><path d="M128 12 221 65v126l-93 53-93-53V65Z" fill="url(#bg)" stroke="#49c8dd" stroke-width="5"/><path d="M128 24 209 70v112l-81 46-81-46V70Z" fill="none" stroke="#67e2eb" stroke-opacity=".18" stroke-width="3"/><g filter="url(#s)"><path d="M55 120h146l-16 83H71Z" fill="#b97732" stroke="#6e431f" stroke-width="6"/><path d="M65 135h126" stroke="#e3ac5a" stroke-width="6"/><circle cx="98" cy="108" r="28" fill="#d94839"/><path d="M98 80c5-14 12-21 24-24" stroke="#4e9b42" stroke-width="8" stroke-linecap="round"/><path d="M134 125c-9-45 24-71 40-31 12 30-18 48-40 31Z" fill="#f0c84c"/><path d="M128 160c18-37 37-45 53-26 16 20-7 40-53 26Z" fill="#f1e0ab"/><path d="M131 150c20-9 37-7 50 5" stroke="#b9833a" stroke-width="5"/></g></svg>