<svg xmlns="http://www.w3.org/2000/svg" viewBox="0 0 256 256"><defs><linearGradient id="bg" x2="1" y2="1"><stop stop-color="#123d50"/><stop offset="1" stop-color="#071925"/></linearGradient><linearGradient id="grass" x2="1" y2="1"><stop stop-color="#8bd45a"/><stop offset="1" stop-color="#3c8a3f"/></linearGradient><linearGradient id="soil" x2="1" y2="1"><stop stop-color="#8b5c36"/><stop offset="1" stop-color="#51341f"/></linearGradient><filter id="sh"><feDropShadow dx="0" dy="10" stdDeviation="8" flood-color="#000" flood-opacity=".45"/></filter><filter id="gl"><feGaussianBlur stdDeviation="7"/></filter></defs><path d="M128 8 233 67v122l-105 59L23 189V67Z" fill="url(#bg)" stroke="#45c7dc" stroke-width="4"/><path d="M128 20 220 72v110l-92 52-92-52V72Z" fill="none" stroke="#6ce7ec" stroke-opacity=".2" stroke-width="3"/><ellipse cx="129" cy="183" rx="72" ry="27" fill="#38d7df" opacity=".18" filter="url(#gl)"/><g filter="url(#sh)"><path d="M42 138 125 93l89 42-84 49Z" fill="url(#grass)" stroke="#a8ed7a" stroke-width="3"/><path d="M42 138v25l88 47v-26Z" fill="url(#soil)" stroke="#4f3522" stroke-width="3"/><path d="M130 184v26l84-48v-27Z" fill="#704a2b" stroke="#4b3220" stroke-width="3"/></g><g stroke="#d8f3bd" stroke-width="3" opacity=".7"><path d="M73 139 126 111l56 26-54 31Z"/><path d="M98 125v31M154 125v31"/></g><path d="M128 52c-25 0-45 19-45 43 0 32 45 74 45 74s45-42 45-74c0-24-20-43-45-43Z" fill="#eef8f2" stroke="#4de0c8" stroke-width="5" filter="url(#sh)"/><circle cx="128" cy="96" r="17" fill="#34ad8c"/><circle cx="122" cy="89" r="5" fill="#9ef8e3"/></svg>