<svg xmlns="http://www.w3.org/2000/svg" viewBox="0 0 1000 650" role="img" aria-label="Legalisierung"><defs><linearGradient id="g" x1="0" y1="0" x2="1" y2="1"><stop stop-color="#07090c"/><stop offset=".55" stop-color="#14191f"/><stop offset="1" stop-color="#251c18"/></linearGradient><radialGradient id="r"><stop stop-color="#d5b36b" stop-opacity=".24"/><stop offset="1" stop-color="#d5b36b" stop-opacity="0"/></radialGradient></defs><rect width="1000" height="650" fill="url(#g)"/><circle cx="817" cy="120" r="145" fill="url(#r)"/><g opacity=".23" stroke="#d5b36b"><path d="M0 510 H1000 M0 535 H1000 M0 560 H1000"/><path d="M196 80 V520 M456 40 V520 M716 120 V520"/></g><g transform="translate(500 300) rotate(-1) scale(.78) translate(-250 -315)"><path d="M100 430 H400 M145 430 V275 H210 V430 M245 430 V205 H315 V430 M340 430 V325 H385 V430" fill="none" stroke="#d5b36b" stroke-width="10"/><circle cx="280" cy="175" r="42" fill="none" stroke="#69727b" stroke-width="7"/></g><rect x="52" y="48" width="10" height="100" fill="#d5b36b"/><text x="82" y="92" fill="#d5b36b" font-family="Arial,sans-serif" font-size="22" letter-spacing="5">SYNDIKAT</text><text x="82" y="135" fill="#f0eadf" font-family="Arial,sans-serif" font-size="34" font-weight="700">Legalisierung</text><text x="82" y="590" fill="#b9b2a6" font-family="Arial,sans-serif" font-size="22">Endgame · Macht wird zum Konzern</text><text x="900" y="590" text-anchor="end" fill="#d5b36b" font-family="Arial,sans-serif" font-size="20">NOIR 1</text></svg>